PathFileType	4	(X/Y/Z)	./resultDataOpenSim/trcMotMarkerGrf/sub06/qtm-13-06.trc
DataRate	CameraRate	NumFrames	NumMarkers	Units	OrigDataRate	OrigDataStartFrame	OrigNumFrames
250.000000	250.000000	7	24	m	250.000000	201	534
Frame#	Time	L.Toe.Tip			R.Toe.Tip			L.Ankle.Lat			R.Ankle.Lat			L.Ankle.Med			R.Ankle.Med			L.Heel			R.Heel			L.Knee.Lat			R.Knee.Lat			L.Knee.Med			R.Knee.Med			L.Thigh.Upper			R.Thigh.Upper			L.ASIS			R.ASIS			V.Sacral			L.Acromium			R.Acromium			C7			L.Elbow			R.Elbow			L.Wrist.Lat			R.Wrist.Lat
		X1	Y1	Z1	X2	Y2	Z2	X3	Y3	Z3	X4	Y4	Z4	X5	Y5	Z5	X6	Y6	Z6	X7	Y7	Z7	X8	Y8	Z8	X9	Y9	Z9	X10	Y10	Z10	X11	Y11	Z11	X12	Y12	Z12	X13	Y13	Z13	X14	Y14	Z14	X15	Y15	Z15	X16	Y16	Z16	X17	Y17	Z17	X18	Y18	Z18	X19	Y19	Z19	X20	Y20	Z20	X21	Y21	Z21	X22	Y22	Z22	X23	Y23	Z23	X24	Y24	Z24

201	0.8	0.048188119	-0.014826269	-0.06972827	-0.2259714	0.10909023	0.12970634	-0.076060576	0.01952601	-0.090686825	-0.27821531	0.2375861	0.13498677	-0.075141319	0.032984898	-0.0036652678	-0.23213784	0.22698376	0.057213446	-0.15112405	-0.007486695	-0.045942753	-0.31447938	0.26445861	0.065275653	0.0092421932	0.38573901	-0.10443449	0.041258068	0.41887179	0.19698329	-0.025825582	0.38787358	0.013729002	0.04776115	0.39666379	0.061847387	-0.043361433	0.77423302	-0.17340564	-0.11186577	0.75974464	0.16711014	0.018566381	0.8203125	-0.11726706	-0.014405716	0.82141484	0.13006695	-0.18121534	0.89623806	-0.016418785	-0.022617171	1.2956836	-0.19634192	-0.063018988	1.3028315	0.16396223	-0.12114474	1.3336143	-0.027894766	-0.089416931	0.98450216	-0.24442057	-0.14784464	0.99424457	0.24120304	0.03353028	0.77542507	-0.2817621	0.026867091	0.81893447	0.26160598
202	0.804	0.048154994	-0.01483608	-0.069881472	-0.20659582	0.10853536	0.13065047	-0.076246186	0.019795992	-0.090812762	-0.26256129	0.2351167	0.13581176	-0.075330722	0.033216027	-0.0037770446	-0.21652817	0.22562025	0.057787066	-0.1510864	-0.0071317368	-0.04582372	-0.29993479	0.26089992	0.066039323	0.0089120222	0.38599277	-0.10446939	0.053478003	0.42333648	0.19666234	-0.025826904	0.38803544	0.013911044	0.060008489	0.40122502	0.061667243	-0.038748061	0.77524875	-0.17343672	-0.10408899	0.76183392	0.16723329	0.023314497	0.82149003	-0.11838653	-0.0078980792	0.82380852	0.12947896	-0.17510408	0.89775153	-0.016335954	-0.016535413	1.2978999	-0.19594326	-0.056535085	1.3040388	0.16419736	-0.11480782	1.3350735	-0.027410398	-0.08144393	0.98585708	-0.24461928	-0.14347172	0.99616351	0.24084147	0.04634076	0.77890667	-0.28132132	0.027492162	0.81774996	0.26228033
203	0.808	0.048129094	-0.014851101	-0.070013502	-0.18716803	0.10789242	0.1316159	-0.07639043	0.020086941	-0.090915847	-0.24686869	0.23247289	0.13644217	-0.075391965	0.033537006	-0.0038808856	-0.20077034	0.22405713	0.058415693	-0.15102867	-0.0067262693	-0.045691566	-0.28537767	0.25711523	0.066801225	0.0085821097	0.38619942	-0.10450394	0.065588866	0.42778642	0.19628412	-0.026018561	0.38829098	0.014332281	0.072173243	0.40583988	0.061346826	-0.034255343	0.77620805	-0.17345064	-0.095643058	0.76375713	0.16701138	0.02838734	0.82273942	-0.11918229	-0.0012961269	0.82613436	0.12881712	-0.16898031	0.89921794	-0.016295555	-0.010457252	1.3000608	-0.19555604	-0.050000272	1.305143	0.16442724	-0.10847119	1.3364512	-0.026922282	-0.074027999	0.98740509	-0.24446599	-0.13910666	0.99803529	0.24053446	0.059122054	0.78247882	-0.28084441	0.028092145	0.81663348	0.26299179
204	0.812	0.048139242	-0.014866733	-0.070082865	-0.1677251	0.10716243	0.1325956	-0.076476084	0.020403969	-0.090978634	-0.23109792	0.2297194	0.13698419	-0.075332163	0.033945304	-0.0039712479	-0.18484572	0.22228998	0.059052095	-0.15095691	-0.0062824434	-0.045560194	-0.27072954	0.25310876	0.067541557	0.0082534548	0.38635916	-0.10454642	0.077608595	0.43219125	0.19583095	-0.026129573	0.38862954	0.014777986	0.084333977	0.41048934	0.060851362	-0.029776074	0.77710278	-0.17343058	-0.087240263	0.765817	0.16693565	0.033759513	0.82405573	-0.11964941	0.0053933184	0.82838615	0.12808641	-0.1629782	0.90064004	-0.016279051	-0.004384102	1.3021588	-0.19517443	-0.043425002	1.3061405	0.16465893	-0.1021388	1.3377439	-0.026435994	-0.066934304	0.98910994	-0.24401802	-0.13475573	0.99985294	0.24027352	0.071876075	0.78613417	-0.2803236	0.028733965	0.81557548	0.26374272
205	0.816	0.048176205	-0.0148794	-0.070117051	-0.1482733	0.10636	0.13359659	-0.076512635	0.020749913	-0.091009518	-0.21519026	0.22686171	0.13756566	-0.075233746	0.034392802	-0.0040588963	-0.16887408	0.22038017	0.059566521	-0.15087414	-0.0058073225	-0.045436594	-0.25590366	0.24888947	0.068265617	0.0079383523	0.38649078	-0.10461235	0.089532954	0.43653743	0.19530547	-0.026033088	0.38901783	0.01509516	0.096392121	0.41517857	0.060289303	-0.02513517	0.7779381	-0.17334115	-0.079414921	0.76811077	0.16733173	0.039218108	0.82532608	-0.12004845	0.012145291	0.83056201	0.12728623	-0.15714987	0.90201214	-0.016296545	0.0016790612	1.304187	-0.19479083	-0.036819411	1.3070287	0.164896	-0.095814484	1.3389447	-0.025956013	-0.059126951	0.99066319	-0.24387102	-0.13042397	1.0016107	0.24004971	0.084607437	0.78986178	-0.27974794	0.029424772	0.8145794	0.2645325
206	0.82	0.048185605	-0.014885979	-0.070195978	-0.12879532	0.10550057	0.13462644	-0.076515542	0.021126694	-0.091020673	-0.19912767	0.22387913	0.13821806	-0.075114318	0.034859657	-0.004142654	-0.1529651	0.21837016	0.05990474	-0.15077913	-0.0052896079	-0.045316602	-0.24082265	0.24445069	0.069013466	0.0076609733	0.38662177	-0.10471385	0.10134502	0.44082639	0.19472392	-0.025833048	0.38944074	0.01529548	0.10817894	0.41990542	0.05977697	-0.020168135	0.77872835	-0.17315476	-0.072121652	0.77048512	0.16810836	0.044653938	0.82647379	-0.12052653	0.018915677	0.83265196	0.12641138	-0.15141561	0.90331849	-0.016372202	0.0077329925	1.3061378	-0.19440086	-0.030194098	1.3078097	0.16513877	-0.089494518	1.3400487	-0.025481987	-0.04993939	0.99178416	-0.24459461	-0.12611674	1.0033081	0.23985544	0.097318269	0.79365467	-0.27910732	0.030149972	0.81364802	0.26535569
207	0.824	0.048122453	-0.01489027	-0.070371321	-0.10924186	0.10459732	0.13568502	-0.076502056	0.021533756	-0.091021376	-0.18292093	0.22075473	0.13891069	-0.074973122	0.035347918	-0.0042179022	-0.13701571	0.21620292	0.060189896	-0.15066982	-0.0047126874	-0.045190741	-0.22546521	0.23978014	0.069817446	0.0074477852	0.38677348	-0.1048508	0.11302893	0.44506139	0.19409742	-0.025617178	0.3899027	0.015453512	0.11964691	0.42464857	0.059326207	-0.014892656	0.77948258	-0.1729091	-0.065019564	0.7727924	0.16902349	0.050070928	0.82752128	-0.12103103	0.02565932	0.83463379	0.12546279	-0.14563097	0.90454386	-0.016463784	0.013782377	1.3080042	-0.19400192	-0.023556873	1.3084875	0.16538674	-0.083169722	1.3410575	-0.025011011	-0.040209094	0.99257793	-0.24586397	-0.12183404	1.0049445	0.23968651	0.11000648	0.79751224	-0.2783952	0.030902912	0.81277664	0.26620336
